name ./resultDataOpenSim/trcMotMarkerGrf/sub06/grf-12-08.mot
datacolumns 19
datarows 20
range 0.51600000 0.59200000
endheader

                time	     ground_force_vx	     ground_force_vy	     ground_force_vz	     ground_force_px	     ground_force_py	     ground_force_pz	   l_ground_force_vx	   l_ground_force_vy	   l_ground_force_vz	   l_ground_force_px	   l_ground_force_py	   l_ground_force_pz	     ground_torque_x	     ground_torque_y	     ground_torque_z	   l_ground_torque_x	   l_ground_torque_y	   l_ground_torque_z	
          0.51600000	         90.53368626	        618.03167296	        -29.72842708	         -0.73272592	          0.00000000	          0.07790989	          0.00000000	          0.00000000	          0.00000000	          0.00000000	          0.00000000	          0.00000000	          0.00000000	          1.73346815	          0.00000000	          0.00000000	          0.00000000	          0.00000000	
          0.52000000	         96.25567625	        636.27781578	        -29.26784291	         -0.73243119	          0.00000000	          0.07752593	          0.00000000	          0.00000000	          0.00000000	          0.00000000	          0.00000000	          0.00000000	          0.00000000	          1.90418229	          0.00000000	          0.00000000	          0.00000000	          0.00000000	
          0.52400000	        101.86306497	        653.60947198	        -28.70967372	         -0.73206310	          0.00000000	          0.07718931	          0.00000000	          0.00000000	          0.00000000	          0.00000000	          0.00000000	          0.00000000	          0.00000000	          2.10235417	          0.00000000	          0.00000000	          0.00000000	          0.00000000	
          0.52800000	        107.35686470	        669.84249133	        -28.23120920	         -0.73156487	          0.00000000	          0.07692402	          0.00000000	          0.00000000	          0.00000000	          0.00000000	          0.00000000	          0.00000000	          0.00000000	          2.30608497	          0.00000000	          0.00000000	          0.00000000	          0.00000000	
          0.53200000	        112.84693895	        685.06644533	        -28.00859458	         -0.73101553	          0.00000000	          0.07670762	          0.00000000	          0.00000000	          0.00000000	          0.00000000	          0.00000000	          0.00000000	          0.00000000	          2.49134378	          0.00000000	          0.00000000	          0.00000000	          0.00000000	
          0.53600000	        118.51748537	        699.47257064	        -28.17139886	         -0.73055291	          0.00000000	          0.07650325	          0.00000000	          0.00000000	          0.00000000	          0.00000000	          0.00000000	          0.00000000	          0.00000000	          2.63681454	          0.00000000	          0.00000000	          0.00000000	          0.00000000	
          0.54000000	        124.52503516	        713.10697825	        -28.77156927	         -0.73023032	          0.00000000	          0.07630145	          0.00000000	          0.00000000	          0.00000000	          0.00000000	          0.00000000	          0.00000000	          0.00000000	          2.72814889	          0.00000000	          0.00000000	          0.00000000	          0.00000000	
          0.54400000	        130.92609101	        725.78914993	        -29.78242772	         -0.72997569	          0.00000000	          0.07612480	          0.00000000	          0.00000000	          0.00000000	          0.00000000	          0.00000000	          0.00000000	          0.00000000	          2.76079496	          0.00000000	          0.00000000	          0.00000000	          0.00000000	
          0.54800000	        137.68344123	        737.26049932	        -31.11314826	         -0.72967930	          0.00000000	          0.07599870	          0.00000000	          0.00000000	          0.00000000	          0.00000000	          0.00000000	          0.00000000	          0.00000000	          2.74070629	          0.00000000	          0.00000000	          0.00000000	          0.00000000	
          0.55200000	        144.69959140	        747.39818473	        -32.61704606	         -0.72931191	          0.00000000	          0.07591794	          0.00000000	          0.00000000	          0.00000000	          0.00000000	          0.00000000	          0.00000000	          0.00000000	          2.68257118	          0.00000000	          0.00000000	          0.00000000	          0.00000000	
          0.55600000	        151.83746664	        756.23828876	        -34.10221288	         -0.72893733	          0.00000000	          0.07584492	          0.00000000	          0.00000000	          0.00000000	          0.00000000	          0.00000000	          0.00000000	          0.00000000	          2.60584444	          0.00000000	          0.00000000	          0.00000000	          0.00000000	
          0.56000000	        158.94585004	        763.74319078	        -35.37793531	         -0.72861440	          0.00000000	          0.07574780	          0.00000000	          0.00000000	          0.00000000	          0.00000000	          0.00000000	          0.00000000	          0.00000000	          2.52966933	          0.00000000	          0.00000000	          0.00000000	          0.00000000	
          0.56400000	        165.89976671	        769.58608288	        -36.31675634	         -0.72829950	          0.00000000	          0.07563918	          0.00000000	          0.00000000	          0.00000000	          0.00000000	          0.00000000	          0.00000000	          0.00000000	          2.46833079	          0.00000000	          0.00000000	          0.00000000	          0.00000000	
          0.56800000	        172.61881238	        773.29391751	        -36.87037966	         -0.72786135	          0.00000000	          0.07556406	          0.00000000	          0.00000000	          0.00000000	          0.00000000	          0.00000000	          0.00000000	          0.00000000	          2.42865034	          0.00000000	          0.00000000	          0.00000000	          0.00000000	
          0.57200000	        179.04968512	        774.68576981	        -37.03671224	         -0.72722203	          0.00000000	          0.07553994	          0.00000000	          0.00000000	          0.00000000	          0.00000000	          0.00000000	          0.00000000	          0.00000000	          2.40966325	          0.00000000	          0.00000000	          0.00000000	          0.00000000	
          0.57600000	        185.17292412	        774.08324800	        -36.83893667	         -0.72648051	          0.00000000	          0.07551825	          0.00000000	          0.00000000	          0.00000000	          0.00000000	          0.00000000	          0.00000000	          0.00000000	          2.40379579	          0.00000000	          0.00000000	          0.00000000	          0.00000000	
          0.58000000	        191.03913433	        771.93047700	        -36.34843450	         -0.72585879	          0.00000000	          0.07542653	          0.00000000	          0.00000000	          0.00000000	          0.00000000	          0.00000000	          0.00000000	          0.00000000	          2.39858420	          0.00000000	          0.00000000	          0.00000000	          0.00000000	
          0.58400000	        196.73160824	        768.20718144	        -35.69273939	         -0.72546449	          0.00000000	          0.07525955	          0.00000000	          0.00000000	          0.00000000	          0.00000000	          0.00000000	          0.00000000	          0.00000000	          2.37877838	          0.00000000	          0.00000000	          0.00000000	          0.00000000	
          0.58800000	        202.25325166	        762.37336109	        -34.99597259	         -0.72513560	          0.00000000	          0.07509702	          0.00000000	          0.00000000	          0.00000000	          0.00000000	          0.00000000	          0.00000000	          0.00000000	          2.32924788	          0.00000000	          0.00000000	          0.00000000	          0.00000000	
          0.59200000	        207.51337775	        753.95283671	        -34.31682344	         -0.72460775	          0.00000000	          0.07501447	          0.00000000	          0.00000000	          0.00000000	          0.00000000	          0.00000000	          0.00000000	          0.00000000	          2.23850054	          0.00000000	          0.00000000	          0.00000000	          0.00000000	
